HIERARCHY
ROOT base
{
	OFFSET 0.0 0.0 0.0
	CHANNELS 6 Xposition Yposition Zposition Zrotation Yrotation Xrotation
	JOINT root
	{
		OFFSET 0 0 0
		CHANNELS 6 Xposition Yposition Zposition Zrotation Yrotation Xrotation
		JOINT chest
		{
			OFFSET 0 4.72302 0
			CHANNELS 3 Zrotation Yrotation Xrotation
			JOINT neck
			{
				OFFSET 0 4.47788 0
				CHANNELS 3 Zrotation Yrotation Xrotation
				End Site
				{
					OFFSET 0.0 0.0 0.0
				}
			}
			JOINT right_shoulder
			{
				OFFSET -0.481 4.87 3.6622
				CHANNELS 3 Zrotation Yrotation Xrotation
				JOINT right_elbow
				{
					OFFSET 0 -5.49576 0
					CHANNELS 3 Zrotation Yrotation Xrotation
					JOINT right_wrist
					{
						OFFSET 0 -5.17894 0
						CHANNELS 3 Zrotation Yrotation Xrotation
						End Site
						{
							OFFSET 0.0 0.0 0.0
						}
					}
				}
			}
			JOINT left_shoulder
			{
				OFFSET -0.481 4.87 -3.6622
				CHANNELS 3 Zrotation Yrotation Xrotation
				JOINT left_elbow
				{
					OFFSET 0 -5.49576 0
					CHANNELS 3 Zrotation Yrotation Xrotation
					JOINT left_wrist
					{
						OFFSET 0 -5.17894 0
						CHANNELS 3 Zrotation Yrotation Xrotation
						End Site
						{
							OFFSET 0.0 0.0 0.0
						}
					}
				}
			}
		}
		JOINT right_hip
		{
			OFFSET 0 0 1.69774
			CHANNELS 3 Zrotation Yrotation Xrotation
			JOINT right_knee
			{
				OFFSET 0 -8.43092 0
				CHANNELS 3 Zrotation Yrotation Xrotation
				JOINT right_ankle
				{
					OFFSET 0 -8.1974 0
					CHANNELS 3 Zrotation Yrotation Xrotation
					End Site
					{
						OFFSET 0.0 0.0 0.0
					}
				}
			}
		}
		JOINT left_hip
		{
			OFFSET 0 0 -1.69774
			CHANNELS 3 Zrotation Yrotation Xrotation
			JOINT left_knee
			{
				OFFSET 0 -8.43092 0
				CHANNELS 3 Zrotation Yrotation Xrotation
				JOINT left_ankle
				{
					OFFSET 0 -8.1974 0
					CHANNELS 3 Zrotation Yrotation Xrotation
					End Site
					{
						OFFSET 0.0 0.0 0.0
					}
				}
			}
		}
	}
	JOINT red_arrow
	{
		OFFSET 0 0 0
		CHANNELS 3 Zrotation Yrotation Xrotation
		End Site
		{
			OFFSET 0.0 0.0 0.0
		}
	}
	JOINT blue_arrow
	{
		OFFSET 0 0 0
		CHANNELS 3 Zrotation Yrotation Xrotation
		End Site
		{
			OFFSET 0.0 0.0 0.0
		}
	}
}
MOTION
Frames: 16
Frame Time: 0.0333333333333333
597.461562079191 0 -156.903804284334 0 17.6803105992697 0 0 16.0511781215668 0 -17.9005304734811 9.77202658225592 1.59608878448516 -5.09177421581993 1.04108122692714 -7.91597098884235 8.97622133216664 -7.6610847316226 0.522934486652156 -2.44484008121555 28.4601024617182 -26.2420878966836 70.2130469317888 0 0 0 0 0 -21.584416515563 0.15926242278351 29.1111149081026 73.4934433561733 0 0 0 0 0 8.52405243833484 -10.9701149915513 -14.2797832106338 -86.5949141466059 0 0 -18.5381186614513 -5.86566161256248 26.1249654238839 46.2333386076705 10.0151493940356 -9.59746464708602 -41.662958653973 0 0 12.9992073597372 3.65883297618657 8.68504375993587 0 0 0 0 0 0
599.14286736846 0 -157.522511006892 0 18.3335330816097 0 0 16.1212474584579 0 -19.1839761621459 11.7416821511344 0.193084954687621 -4.02799792723932 -1.61292345143095 -5.8140814683586 7.23160087830843 -7.0501342659343 0.183457307234604 -14.2552446049889 25.507542889869 -28.0829945352002 64.5484978455304 0 0 0 0 0 -2.86767701705711 -9.85612254794439 30.3331904071071 77.3017860826432 0 0 0 0 0 23.9155132631993 -8.61407542494483 -17.2616769302476 -94.5741801916357 0 0 -10.1609847173018 -8.34900869712405 25.5111798170063 42.5562651493137 7.36743955264261 -9.42482656076075 -44.5686884665311 0 0 20.5812826049116 2.04038458100924 7.57511578801232 0 0 0 0 0 0
600.793764573336 0 -158.068136867881 0 19.0126659848798 0 0 16.3079269051552 0 -20.7075602726856 12.0952750606868 -2.3732127227526 -3.66052680592675 -4.54167241314741 -2.27078197094669 4.42672335044622 -5.97617174417747 -0.241577219286115 -26.6740299274329 22.3012341541607 -31.6752880668256 56.9988916804294 0 0 0 0 0 16.1451785233272 -20.7092327169083 31.7414084648179 81.2965519923194 0 0 0 0 0 42.2333632640045 -4.1238424528112 -17.7280180081769 -98.1136388610497 0 0 -1.26316002694791 -11.0921329388788 25.0265356304799 37.2934105344625 3.86577923314149 -7.16140356687197 -42.7366951273503 0 0 25.6591057403089 1.55803067567747 5.95718211542573 0 0 0 0 0 0
602.560330885649 0 -158.63009364605 0 19.6239163205151 0 0 16.5136144518852 0 -21.6919910449017 10.8114121132322 -5.23495139020465 -4.08066301884714 -6.8454571666621 2.05753599464584 1.46434997377192 -4.53451495216468 -0.253189985717563 -40.595198511327 19.5765736297157 -35.7126276621368 47.6960203516157 0 0 0 0 0 34.687508812204 -31.0952523657908 31.7585188599019 85.5426893540195 0 0 0 0 0 60.3764601733381 1.52908687945312 -14.4567521909206 -97.9771921720003 0 0 7.91737717194266 -13.4106967925835 23.6504097041151 29.2191395262452 1.39825300173539 -3.1160192424235 -36.8497858175676 0 0 28.9922919560337 1.77356819440865 4.18184368748481 0 0 0 0 0 0
604.436293506622 0 -159.21720122695 0 20.0438109410451 0 0 16.6607571005821 0 -22.3925253659936 7.38332593024757 -7.85806133418616 -5.13212554373118 -8.04844473365488 6.45336160079057 -0.835249671480633 -2.61456171414939 0.00626378815630638 -54.4386084129485 14.6002606191535 -39.432890990515 43.6918868374928 0 0 0 0 0 50.9911919297598 -39.1817454434342 30.2482217122128 90.1240728907514 0 0 0 0 0 76.4432045962783 6.03938485077117 -7.41440050095847 -91.5463573325691 0 0 15.5082625417435 -14.6926160896989 22.2272336118749 19.3197907119485 1.61002312279484 1.74193356062957 -28.110166038659 0 0 28.8845748585875 3.20723965150165 2.51341174738541 0 0 0 0 0 0
606.347841662169 0 -159.837976795435 0 20.2305999501716 0 0 16.8294337511063 0 -23.3626225313524 3.25867681775964 -9.40760900527667 -6.51990437488526 -9.22047158302271 9.91658764419636 -2.75141173499539 -0.461640240816328 0.523837597269858 -63.685005926165 7.16771558776896 -40.7944047441346 44.6850441541369 0 0 0 0 0 59.5584730811803 -42.6456614504507 29.9452730991649 94.6808131049579 0 0 0 0 0 87.09768982488 7.41729324107209 0.0923695985810162 -78.9949968080785 0 0 20.428454271778 -14.9749534426609 20.9729631160511 10.471526400206 3.35267942377277 4.90885794895319 -20.0957876986534 0 0 20.4805455170095 5.60548593809889 0.547345402586006 0 0 0 0 0 0
608.293067133427 0 -160.481012427807 0 20.2428391123788 0 0 17.0130749106407 0 -24.2237849653115 0.212068740834183 -9.80592605415729 -8.62774724946014 -11.1316286926683 11.7695304926703 -3.66774923039915 1.41237623358238 1.48051491444154 -67.0717327753638 -0.0481517890628766 -39.6937512969708 47.7541589218308 0 0 0 0 0 58.6948330980958 -42.6365166329678 32.9427320595154 98.2995839310141 0 0 0 0 0 90.4564025911717 6.07429459286121 5.70036711396965 -64.9964831230024 0 0 23.8130287266512 -13.9955757154143 18.8061731507295 3.44162141032081 5.82517768866913 6.29143841518061 -14.1063393201822 0 0 3.48049361246776 6.23154476639359 -2.88863906650327 0 0 0 0 0 0
610.299238622189 0 -161.134566307068 0 20.1765937167094 0 0 17.1159978628159 0 -24.4251649392642 -1.14604642674601 -9.59718546985645 -11.2667678806278 -13.2798491147839 12.133232723632 -3.06885283855007 2.21266778281236 2.57162484089369 -65.3934816779509 -5.6269761007212 -36.7438281055741 51.4131800526659 0 0 0 0 0 51.9440119448438 -40.9730713139059 37.3758759759003 99.9264666894194 0 0 0 0 0 87.591713697191 3.54437123789496 9.24015642112959 -53.1945480297186 0 0 25.4714245647374 -11.8191751974996 16.029207268095 -1.81753489501245 6.24698906440812 6.9194695502995 -10.5377942901877 0 0 -14.5521352476509 2.94361975110418 -6.48828575205209 0 0 0 0 0 0
612.382104843855 0 -161.808692157269 0 20.0942297823245 0 0 17.0652938127518 0 -23.8122571909655 -1.43175677960782 -9.27637384081902 -13.5806069437728 -14.5463122713035 11.6079429007459 -1.45824581286168 1.71823886631045 3.29417324940342 -60.5736567560918 -9.40605094228539 -33.1752374362894 55.1907800976815 0 0 0 0 0 42.410772700465 -39.0966737037493 41.2754957662564 99.0738541753267 0 0 0 0 0 80.6293085899778 1.19137994753368 11.3754277582133 -44.1592322861672 0 0 25.9177507350323 -10.0314338446358 14.5054941390687 -4.2432898979207 9.02211306533681 8.15712436774566 -12.7980054856089 0 0 -24.4379543846224 -0.481347544287351 -11.2856646843578 0 0 0 0 0 0
614.555667233467 0 -162.530180537701 0 20.0133202448886 0 0 16.7967109680176 0 -22.2768481492686 -1.42259216021409 -8.89963594493476 -14.9999667273683 -14.5068765816695 10.5052949304766 0.669614456440104 0.413986731747785 3.59071846969946 -53.8837849354945 -11.6934064650555 -29.8803114086732 58.9439451409414 0 0 0 0 0 31.443999964974 -37.2156394791131 43.7165438919823 96.3025732214858 0 0 0 0 0 71.0838374288669 -0.989912028768284 12.55175236151 -37.6282122319902 0 0 25.173615167155 -9.00426556583978 13.9843698396954 -5.05627131274163 10.6114197045756 10.0390812343289 -22.4128235066481 0 0 -26.9964518881557 -2.02988718878045 -11.8155964701385 0 0 0 0 0 0
616.737276309729 0 -163.316898679733 0 19.9353569479459 0 0 16.2959942102432 0 -20.3886673033245 -1.38853793369179 -8.05792919613357 -15.9280497092319 -13.3636538414612 8.90945658832726 3.15103906852023 -1.26860418024707 3.47789144304845 -45.5887404303172 -11.7059673996503 -27.4369739543959 62.4390690524528 0 0 0 0 0 20.0947901343703 -35.141631413023 44.2919033616543 91.7383402897598 0 0 0 0 0 60.7813971183474 -3.09967941592517 12.3327352063533 -33.7754118042127 0 0 22.8725826518387 -8.3007906424239 14.5020742463844 -5.11846607430206 8.70847623419636 11.275534466685 -36.5167970200565 0 0 -25.5686012856634 -2.64132567707151 -12.973414455892 0 0 0 0 0 0
618.762115204334 0 -164.067934244871 0 19.7071970030137 0 0 15.7402566671371 0 -19.3140718935181 -4.09191518917193 -7.2121689186351 -16.1941148656154 -9.08370385036592 6.65093048584812 5.12230524423318 -3.33097786920554 2.8037484252604 -34.600795107803 -8.9081857692712 -26.393671514086 65.7656717065725 0 0 0 0 0 8.45953847966339 -32.5445437401438 43.1032907887256 84.6503661200924 0 0 0 0 0 54.6018932542771 -6.84625472365394 14.1238886342972 -35.6503875238404 0 0 6.49411633812541 -7.47494695458201 -8.22132093719817 -2.05899567052051 7.54744720687515 12.3168193971837 -53.126027571965 0 0 -21.5688889661058 -2.52544991628725 -15.6959385529714 0 0 0 0 0 0
620.437351983786 0 -164.645997464657 0 19.1622090581383 0 0 15.6301186919212 0 -22.0082802988118 -9.61483774393651 -6.99180278523071 -12.1800210564652 -2.8564339064685 3.60559122769546 4.14749541992999 -5.50826164549147 2.40729710539603 -22.4706422487161 -2.63700858055368 -27.0902366294308 69.9236723072228 0 0 0 0 0 -4.15513104414316 -29.328921909833 40.550412561508 75.4300410424929 0 0 0 0 0 54.4557258329134 -8.30012021326154 16.9778120551805 -43.410592326715 0 0 10.1969627386284 -2.63277748147847 -8.6450143072938 9.11881114162302 5.49443434083788 14.7655855107644 -70.9648800046779 0 0 -13.8845055855908 -0.491124924061591 -16.361296761519 0 0 0 0 0 0
621.912716829777 0 -165.219586482644 0 18.4618865415563 0 0 15.7953379392624 0 -26.1946699217607 -11.9812159936777 -6.14581880836009 -8.12245775836212 0.559682314932246 1.78921684124615 3.62798912087463 -6.79928872756488 1.0504935510806 -6.76123198923084 7.72954039554495 -28.7941009970137 75.2470602746283 0 0 0 0 0 -15.0385673485912 -24.0971181899893 39.8836444350109 70.575511410663 0 0 0 0 0 53.3264213365305 -7.51772653827794 17.5862323080703 -45.0602571810969 0 0 16.6049266817764 0.546440969217959 -8.22671335379647 25.4061243645283 1.66355207197143 18.3050304466084 -83.3898820295232 0 0 -4.92307631360116 2.1699930231242 -16.3300760005465 0 0 0 0 0 0
623.377616608143 0 -165.955034607649 0 17.6713825724413 0 0 16.0248271226883 0 -29.5890251985131 -13.1335298971624 -3.38469408173356 -4.97226414873777 4.10378528882608 -1.0073567258343 3.23019314984196 -8.0391048999214 0.838555402928194 10.4465642709701 19.0835500574245 -30.9373522033408 81.1868250033031 0 0 0 0 0 -26.2525528564717 -18.8282086214793 40.3157204012736 63.937947235623 0 0 0 0 0 50.7640790144198 -3.95639730691664 15.6974074525295 -44.223743422878 0 0 21.8596838848984 2.46864473755394 -6.64022131506826 43.725863587996 -2.79729057858649 17.9546250311079 -91.6281625082583 0 0 2.76502794019165 5.39165024471954 -17.6750790252907 0 0 0 0 0 0
625.092245548964 0 -166.780928757787 0 16.9306387586783 0 0 16.3633714199066 0 -29.9523106982302 -12.255357303406 -0.667017144255977 -5.24086695418172 6.81306385288139 -4.51869936998259 4.26903717131953 -8.13080921856454 1.35821008248915 27.3524531908161 29.2037256428558 -32.6225367264205 88.2220018106863 0 0 0 0 0 -38.3682481565171 -14.4705282938654 41.2717282342356 56.0037331183585 0 0 0 0 0 42.1062319794464 0.442965605671808 11.6710257688347 -38.3438623777512 0 0 25.5194367085631 2.94038714689936 -4.6357896362602 60.5472644429356 -6.48695453382216 13.9138136600078 -95.1467071384337 0 0 11.635815873255 8.88413545336921 -19.4432236832688 0 0 0 0 0 0
